<svg width="64pt" height="64pt" viewBox="0 0 22.578 22.578" xmlns="http://www.w3.org/2000/svg"><g stroke-width=".799"><path style="-inkscape-stroke:none" d="M9.955.97a.712.712 0 00-.709.709l-.002.808H8.059a.33.33 0 00-.15.035L5.636 3.66a.331.331 0 00-.144.452l.823 1.537a.33.33 0 00.3.174l7.878-.181a.33.33 0 00.31-.237l.404-1.354c.03-.196-.05-.256-.169-.39L12.76 2.52a.331.331 0 00-.147-.033h-1.187v-.81a.714.714 0 00-.711-.708z" color="#000" fill="#333"/><path style="-inkscape-stroke:none" d="M15.037 3.66L12.76 2.523a.33.33 0 00-.147-.034h-1.187v-.809a.714.714 0 00-.711-.708h-.76a.713.713 0 00-.707.663c.264-.004.537-.002.805-.002.388 0 .71.32.71.709v.809h1.189c.05 0 .1.01.146.034l2.277 1.138zM12.33 12.163a.331.331 0 01.33.33v1.49a.331.331 0 01-.295.33l.625.003a.331.331 0 00.332-.332v-1.491a.331.331 0 00-.33-.33z" color="#000" fill="#262626"/><path style="-inkscape-stroke:none" d="M7.68 12.163a.331.331 0 00-.332.33v1.47a.331.331 0 00.33.33l5.312.023a.331.331 0 00.332-.333v-1.49a.331.331 0 00-.33-.33z" color="#000" fill="#333"/><path style="-inkscape-stroke:none" d="M8.818 13.345h3.035l1.469-.245v-.607a.331.331 0 00-.33-.33H7.68a.331.331 0 00-.332.33v.607z" color="#000" fill="#262626"/><path style="-inkscape-stroke:none" d="M6.454 10.46a.331.331 0 00-.382.357l.14 1.517a.331.331 0 00.276.296l2.275.379a.331.331 0 00.056.005h3.034a.331.331 0 00.054-.005l2.277-.38a.331.331 0 00.277-.295l.136-1.517a.331.331 0 00-.38-.357l-2.39.374H8.843z" color="#000" fill="#333"/><path style="-inkscape-stroke:none" d="M15.65 20.566c.388.551 1.086.892 1.87.892.978 0 1.838-.532 2.094-1.34.052-.166-.022-.324-.103-.461.08-.137.155-.294.103-.46-.243-.766-1.031-1.283-1.945-1.334z" color="#000" fill="#66342d"/><path style="-inkscape-stroke:none" d="M6.991 13.671a.33.33 0 00-.366.176c-1.171 2.342-1.173 4.149-1.173 6.426a.33.33 0 00.132.263c.738.554 2.076.79 3.574.885 1.499.095 3.134.009 4.374-.269a.331.331 0 00.237-.21l1.315-3.58a.331.331 0 00.017-.153c-.136-1.14-.43-2.116-1.053-3.362a.331.331 0 00-.384-.171c-1.803.483-4.839.401-6.673-.005z" color="#000" fill="gray"/><path d="M15.1 17.209a11.047 11.047 0 00-.272-1.467 2.29 2.29 0 00-.993 1.305c-.276.01-.557-.017-.816.074-.251.086-.307.284-.445.459-.267.107-.526.263-.679.557-.546 1.053-.221 2.322.614 3.19.36-.046.705-.103 1.023-.175.422-1.328 1.258-2.603 1.568-3.943z" fill="#6b6b6b"/><path style="-inkscape-stroke:none" d="M15.1 17.208c-.13-1.088-.403-1.985-.97-3.166-.12-.318-.315-.4-.55-.32-2.254.36-4.712.35-6.676-.033a.331.331 0 00-.28.183c-.058.118-.113.234-.166.35 1.525.598 3.473.487 5.259.287 1.061-.12 2.274.46 2.514 1.5.093.403.16.802.207 1.2z" color="#000" fill="#6b6b6b"/><path style="-inkscape-stroke:none" d="M5.723 3.604a6.766 6.766 0 00-1.333-.143 4.5 4.5 0 00-.553.033c-.652.08-1.304.33-1.676.916-.147.213-.109.634.207.636.525 0 .74.124.907.315.167.19.28.503.42.889.14.386.317.84.677 1.246.36.408.9.754 1.71.956a.331.331 0 00.41-.352l-.37-4.17z" color="#000" fill="#333"/><path style="-inkscape-stroke:none" d="M5.723 3.604a7.165 7.165 0 00-.982-.132l.421 4.636c.26.138.564.255.92.344z" color="#000" fill="#262626"/><path style="-inkscape-stroke:none" d="M16.322 4.383a.331.331 0 00-.33.296l-.21 1.896a.331.331 0 00.328.37l1.441.007a.415.415 0 01.418.42l.003 4.552c0 .598.491 1.09 1.09 1.09h.38c.599 0 1.09-.492 1.09-1.09V6.99a2.612 2.612 0 00-2.607-2.607z" color="#000" fill="#333"/><path style="-inkscape-stroke:none" d="M16.322 4.384a.331.331 0 00-.33.295l-.21 1.896a.331.331 0 00.328.37l.92.004.259-2.565z" color="#000" fill="#262626"/><path style="-inkscape-stroke:none" d="M16.322 4.384a.331.331 0 00-.33.295l-.04.367h1.312a2.611 2.611 0 012.606 2.607v4.933c0 .127-.022.25-.063.364.42-.151.725-.555.725-1.026V6.991a2.611 2.611 0 00-2.606-2.607z" color="#000" fill="#262626"/><path style="-inkscape-stroke:none" d="M14.888 3.626a.331.331 0 00-.33.3l-.31 3.414a.331.331 0 00.33.362h.694c.595 0 1.102-.452 1.168-1.044l.212-1.915a1.011 1.011 0 00-1-1.117z" color="#000" fill="#333"/><path d="M14.888 3.626a.331.331 0 00-.33.3l-.31 3.414a.331.331 0 00.33.361c.32.01.67.007.97-.033l.364-4.008a.985.985 0 00-.259-.034z" fill="#262626"/><path style="-inkscape-stroke:none" d="M17.969 7.8v.662h1.043a.331.331 0 00.33-.333.331.331 0 00-.33-.33zm.001 1.517v.662h1.042a.331.331 0 00.33-.33.331.331 0 00-.33-.332zm0 1.517l.002.662h1.04a.331.331 0 00.33-.33.331.331 0 00-.33-.332z" color="#000" fill="gray"/><path style="-inkscape-stroke:none" d="M7.681 15.34a.38.38 0 00-.38.38.38.38 0 00.38.378.38.38 0 00.378-.378.38.38 0 00-.378-.38z" color="#000" fill="#333"/><path d="M15.987 20.448s1.336-.368 1.855-.887c.407-.407.695-.908.824-1.433-.296-.152-.997-.265-.997-.265z" fill="#592f28"/><path style="-inkscape-stroke:none" d="M14.88 16.598c-.408.41-.652.915-.708 1.42a.331.331 0 00.151.317l.84.53.466.824a.331.331 0 00.312.166c.525-.041 1.055-.288 1.48-.714.693-.692.927-1.674.536-2.426a.607.607 0 00-.36-.293.602.602 0 00-.29-.36c-.867-.372-1.785-.092-2.426.536z" color="#000" fill="#66342d"/><path style="-inkscape-stroke:none" d="M5.49 18.164a38.12 38.12 0 00-.038 2.109.331.331 0 00.132.263c.738.554 2.077.79 3.575.885 1.498.094 3.133.008 4.373-.269a.331.331 0 00.237-.21l.914-2.49-2.072.677c-1.17.163-2.598.193-3.853.078-1.26-.115-2.36-.405-2.776-.718a.331.331 0 00-.017-.013z" color="#000" fill="#4d4d4d"/><path style="-inkscape-stroke:none" d="M14.683 18.453l-2.072.676c-.313.044-.644.077-.985.101-.006.756.324 1.516.883 2.098a11.24 11.24 0 001.023-.176c.735-.522.848-1.873 1.151-2.7z" color="#000" fill="#262626"/><path style="-inkscape-stroke:none" d="M14.566 16.978a2.31 2.31 0 00-.394 1.04.331.331 0 00.151.317l.84.53.466.824a.331.331 0 00.312.166 2.272 2.272 0 001.032-.354c-.318-1.147-1.142-2.312-2.407-2.523z" color="#000" fill="#592f28"/><path style="-inkscape-stroke:none" d="M17.415 16.138l-2.246 2.246a.331.331 0 000 .469.331.331 0 00.47 0l2.244-2.247a.623.623 0 00-.285-.184.62.62 0 00-.183-.284z" color="#000" fill="#ececec"/><path d="M14.893 19.447c.388.636.727 1.286 1.37 1.679.989-.804.107-2.47-.43-3.028z" fill="#592f28"/><path style="-inkscape-stroke:none" d="M15.893 17.66l-.724.724a.331.331 0 000 .469.331.331 0 00.47 0l.695-.696a3.086 3.086 0 00-.441-.497z" color="#000" fill="#d1d1d1"/><path style="-inkscape-stroke:none" d="M13.245 17.775a.562.562 0 00-.374.39.602.602 0 00-.36.292c-.39.752-.14 1.357.553 2.049.718.718 2.212 1.58 2.7.554 1.016-.546.53-1.987-.218-2.713-.71-.66-1.583-.827-2.301-.572z" color="#000" fill="#66342d"/><path style="-inkscape-stroke:none" d="M13.055 17.883a.552.552 0 00-.184.283.604.604 0 00-.285.183l2.988 2.988c.073-.076.137-.168.19-.277a1.15 1.15 0 00.27-.199l-2.979-2.978zM18.253 19.327a.331.331 0 00-.33.332.331.331 0 00.33.33h1.378a.73.73 0 00-.12-.332.739.739 0 00.12-.33z" color="#000" fill="#ececec"/><path style="-inkscape-stroke:none" d="M5.54 4.37l.337 4c.092.03.187.057.286.082a.331.331 0 00.411-.352l-.452-4.17c-.096-.246-.213-.256-.399-.326a6.29 6.29 0 00-1.886-.11c-.772.063-1.464.483-1.709.986.534-.281 1.056-.336 1.6-.357.651.02 1.209.1 1.813.247z" color="#000" fill="#262626"/><path style="-inkscape-stroke:none" d="M6.11 3.857a.331.331 0 00-.377.357c.207 2.276.256 4.133.463 6.41.014.15.129.272.278.295l2.065.399a.331.331 0 00.381-.347l-.343-6.513a.331.331 0 00-.286-.31z" color="#000" fill="gray"/><path style="-inkscape-stroke:none" d="M13.996 10.817l-.198 1.517c-.014.15-.128.382-.276.406l.662-.11a.331.331 0 00.276-.296l.136-1.517a.331.331 0 00-.349-.36z" color="#000" fill="#262626"/><path style="-inkscape-stroke:none" d="M14.578 3.875l-2.392.132a.331.331 0 00-.284.31l-.378 6.83c-.013.21.172.379.38.347l2.098-.592a.331.331 0 00.279-.296l.673-6.375a.331.331 0 00-.376-.356z" color="#000" fill="gray"/><path style="-inkscape-stroke:none" d="M12.203 4.667l1.25-.168c.61-.082 1.074.35 1.027.962-.143 1.904-.34 3.807-.517 5.708l.356-.056a.331.331 0 00.279-.296l.62-6.832a.331.331 0 00-.3-.358L12.231 4z" color="#000" fill="#6b6b6b"/><path style="-inkscape-stroke:none" d="M8.438 4.005a.331.331 0 00-.33.35l.379 6.828a.331.331 0 00.332.313h3.034a.331.331 0 00.33-.313l.381-6.829a.331.331 0 00-.332-.35z" color="#000" fill="#999"/><path style="-inkscape-stroke:none" d="M8.466 4.005c-.92-.022-1.774-.205-2.67-.31-.37-.048-.268.195-.179.675.067-.119.076-.097.211-.079l2.638.376z" color="#000" fill="#6b6b6b"/><path style="-inkscape-stroke:none" d="M8.438 4.005c-.19 0-.34.16-.33.349l.014.264.344.05h3.737l.346-.047.015-.267a.331.331 0 00-.332-.35H8.438z" color="#000" fill="gray"/><path style="-inkscape-stroke:none" d="M14.46 12.334l.42-4.633h.392a1.18 1.18 0 001.098-.755l1.181.006a.415.415 0 01.418.42l.003 4.552c0 .598.492 1.09 1.09 1.09h.381c.598 0 1.09-.492 1.09-1.09V6.991a2.611 2.611 0 00-2.607-2.607h-1.299a1.013 1.013 0 00-.974-.758h-.684L12.76 2.522a.332.332 0 00-.146-.034h-1.188v-.809a.714.714 0 00-.711-.708h-.778a.713.713 0 00-.69.708v.809H8.059a.33.33 0 00-.15.034L5.742 3.608c-1.324-.29-3.04-.18-3.655.932-.115.285.023.507.29.506.519.001.732.126.899.316.44.696.605 1.566 1.097 2.135.324.367.797.685 1.48.892l.358 3.932a.318.318 0 00.278.31l.86.143v.796a10.23 10.23 0 01-.357-.073.331.331 0 00-.366.177c-1.073 2.303-1.173 4.33-1.173 6.599 0 .104.049.201.132.264 2.304 1.222 5.038 1.14 7.815.644.648.453 1.442.566 2.073.238.272-.147.443-.326.52-.485.396.331.937.524 1.528.524.978 0 1.838-.531 2.094-1.339a.604.604 0 00-.048-.46.604.604 0 00.048-.461c-.204-.643-.79-1.11-1.513-1.274a1.796 1.796 0 00-.144-1.209.607.607 0 00-.36-.292.602.602 0 00-.29-.36 1.803 1.803 0 00-1.236-.137 2.44 2.44 0 00-1.078.567 10.352 10.352 0 00-.946-2.82.331.331 0 00-.383-.17 6.85 6.85 0 01-.342.082v-.811l.862-.144c.169-.037.271-.128.277-.296zM10.765 1.679v1.138a.33.33 0 00.345.332h1.426l1.26.629-1.591.227H8.466l-1.587-.226 1.258-.63h1.44a.331.331 0 00.332-.332V1.68zM5.474 4.23l.313 3.437c-.436-.167-.716-.38-.921-.611-.554-.633-.612-1.568-1.093-2.134a1.533 1.533 0 00-.767-.46c.783-.418 1.61-.387 2.469-.232zm10.308 2.354a.51.51 0 01-.51.454h-.331l.25-2.751h.462c.21 0 .365.172.342.381zM6.151 4.342l1.971.283.342 6.15L6.71 10.5zm8.37 0l-.559 6.158-1.756.275.343-6.15zm-5.731.325h3.093l-.342 6.167h-2.41zm7.828.379h1.307A1.94 1.94 0 0119.87 6.99v4.932c0 .24-.187.428-.427.428h-.382a.422.422 0 01-.427-.428v-.427h.378a.331.331 0 000-.662h-.379V9.98h.38a.331.331 0 000-.662h-.38v-.855h.38a.331.331 0 000-.662h-.382v-.428c0-.592-.486-1.08-1.077-1.083l-1.073-.005zm-2.717 6.133l-.077.84-1.997.332H8.846l-1.998-.331-.076-.84 1.996.313c1.038.004 2.098.008 3.137 0zm-1.241 1.704v.816c-1.425.199-3.21.167-4.65-.026v-.79c.269.048.54.09.809.13h3.034c.27-.034.539-.085.807-.13zm.855 1.293c.5 1.058.79 2.039.917 3.023a2.34 2.34 0 00-.183.441 1.767 1.767 0 00-1.086.168.606.606 0 00-.293.358.602.602 0 00-.36.291 1.697 1.697 0 00-.185.71c-2.013.12-4.334.182-6.177-.574.06-1.49.274-2.87 1.005-4.417 2.117.402 4.381.466 6.362 0zM7.68 15.34a.38.38 0 10-.003.76.38.38 0 00.003-.76zm9.186 1.347l-1.478 1.476c-.16-.13-.33-.24-.508-.324.078-.266.233-.538.466-.771.49-.419 1.012-.557 1.52-.381zm.472.467c.155.434.095 1.04-.384 1.519a1.818 1.818 0 01-.83.485 2.28 2.28 0 00-.279-.512zm-2.152 1.746c.415.429.464 1.01.314 1.43l-1.903-1.903c.544-.177 1.085-.03 1.59.473zm2.677-.344a1.41 1.41 0 011.01.772h-.621c-.19 0-.33.118-.33.332 0 .214.144.33.33.33h.613c-.197.417-.67.807-1.346.807-.556 0-1.03-.236-1.285-.55.026-.144.036-.293.028-.442.416-.099.82-.324 1.159-.663.179-.179.327-.377.442-.586zm-4.733.34l1.906 1.905c-.434.157-1.043.096-1.522-.383-.48-.48-.54-1.089-.384-1.523zm-7.003.432c1.788.681 4.255.727 6.28.499.08.274.216.543.402.788-2.21.293-4.679.368-6.686-.574z" color="#000"/></g></svg>